<svg width="30" height="40" viewBox="0 0 30 40" fill="none" xmlns="http://www.w3.org/2000/svg">
<path d="M11.25 5.15592e-07H18.75C19.5258 -0.0004062 20.2827 0.23982 20.9162 0.687571C21.5498 1.13532 22.0289 1.76856 22.2875 2.5H26.25C27.2446 2.5 28.1984 2.89509 28.9017 3.59835C29.6049 4.30161 30 5.25544 30 6.25V36.25C30 37.2446 29.6049 38.1984 28.9017 38.9016C28.1984 39.6049 27.2446 40 26.25 40H3.75C2.75544 40 1.80161 39.6049 1.09835 38.9016C0.395088 38.1984 0 37.2446 0 36.25V6.25C0 5.25544 0.395088 4.30161 1.09835 3.59835C1.80161 2.89509 2.75544 2.5 3.75 2.5H7.7125C7.97111 1.76856 8.4502 1.13532 9.08377 0.687571C9.71734 0.23982 10.4742 -0.0004062 11.25 5.15592e-07ZM10 3.75C10 4.08152 10.1317 4.39946 10.3661 4.63388C10.6005 4.8683 10.9185 5 11.25 5H18.75C19.0815 5 19.3995 4.8683 19.6339 4.63388C19.8683 4.39946 20 4.08152 20 3.75C20 3.41848 19.8683 3.10054 19.6339 2.86612C19.3995 2.6317 19.0815 2.5 18.75 2.5H11.25C10.9185 2.5 10.6005 2.6317 10.3661 2.86612C10.1317 3.10054 10 3.41848 10 3.75ZM21.875 18.125C22.3723 18.125 22.8492 17.9275 23.2008 17.5758C23.5525 17.2242 23.75 16.7473 23.75 16.25C23.75 15.7527 23.5525 15.2758 23.2008 14.9242C22.8492 14.5725 22.3723 14.375 21.875 14.375C21.3777 14.375 20.9008 14.5725 20.5492 14.9242C20.1975 15.2758 20 15.7527 20 16.25C20 16.7473 20.1975 17.2242 20.5492 17.5758C20.9008 17.9275 21.3777 18.125 21.875 18.125ZM21.875 25.625C22.3723 25.625 22.8492 25.4275 23.2008 25.0758C23.5525 24.7242 23.75 24.2473 23.75 23.75C23.75 23.2527 23.5525 22.7758 23.2008 22.4242C22.8492 22.0725 22.3723 21.875 21.875 21.875C21.3777 21.875 20.9008 22.0725 20.5492 22.4242C20.1975 22.7758 20 23.2527 20 23.75C20 24.2473 20.1975 24.7242 20.5492 25.0758C20.9008 25.4275 21.3777 25.625 21.875 25.625ZM20 31.25C20 31.7473 20.1975 32.2242 20.5492 32.5758C20.9008 32.9275 21.3777 33.125 21.875 33.125C22.3723 33.125 22.8492 32.9275 23.2008 32.5758C23.5525 32.2242 23.75 31.7473 23.75 31.25C23.75 30.7527 23.5525 30.2758 23.2008 29.9242C22.8492 29.5725 22.3723 29.375 21.875 29.375C21.3777 29.375 20.9008 29.5725 20.5492 29.9242C20.1975 30.2758 20 30.7527 20 31.25ZM17.5 16.25C17.5 15.9185 17.3683 15.6005 17.1339 15.3661C16.8995 15.1317 16.5815 15 16.25 15H7.5C7.16848 15 6.85054 15.1317 6.61612 15.3661C6.3817 15.6005 6.25 15.9185 6.25 16.25C6.25 16.5815 6.3817 16.8995 6.61612 17.1339C6.85054 17.3683 7.16848 17.5 7.5 17.5H16.25C16.5815 17.5 16.8995 17.3683 17.1339 17.1339C17.3683 16.8995 17.5 16.5815 17.5 16.25ZM17.5 23.75C17.5 23.4185 17.3683 23.1005 17.1339 22.8661C16.8995 22.6317 16.5815 22.5 16.25 22.5H7.5C7.16848 22.5 6.85054 22.6317 6.61612 22.8661C6.3817 23.1005 6.25 23.4185 6.25 23.75C6.25 24.0815 6.3817 24.3995 6.61612 24.6339C6.85054 24.8683 7.16848 25 7.5 25H16.25C16.5815 25 16.8995 24.8683 17.1339 24.6339C17.3683 24.3995 17.5 24.0815 17.5 23.75ZM17.5 31.25C17.5 30.9185 17.3683 30.6005 17.1339 30.3661C16.8995 30.1317 16.5815 30 16.25 30H7.5C7.16848 30 6.85054 30.1317 6.61612 30.3661C6.3817 30.6005 6.25 30.9185 6.25 31.25C6.25 31.5815 6.3817 31.8995 6.61612 32.1339C6.85054 32.3683 7.16848 32.5 7.5 32.5H16.25C16.5815 32.5 16.8995 32.3683 17.1339 32.1339C17.3683 31.8995 17.5 31.5815 17.5 31.25Z" fill="#4472E8"/>
</svg>
