<svg width="71" height="60" viewBox="0 0 71 60" fill="none" xmlns="http://www.w3.org/2000/svg">
<path fill-rule="evenodd" clip-rule="evenodd" d="M0.311371 9.37093C10.8989 14.577 16.1926 20.6941 16.1926 27.7223C11.6799 28.243 7.94828 30.0868 4.99764 33.2538C2.04701 36.4208 0.571724 40.0867 0.571724 44.2516C0.571724 48.6768 2.00362 52.4078 4.86748 55.4447C7.73133 58.4816 11.3328 60 15.6719 60C20.5318 60 24.7407 58.0261 28.2989 54.0781C31.857 50.1301 33.636 45.3363 33.636 39.6963C33.636 22.7765 24.1768 9.54452 5.258 0L0.311371 9.37093ZM37.6754 9.37093C48.3497 14.577 53.6868 20.6941 53.6868 27.7223C49.0873 28.243 45.3123 30.0868 42.3616 33.2538C39.411 36.4208 37.9357 40.0867 37.9357 44.2516C37.9357 48.6768 39.3893 52.4078 42.2966 55.4447C45.2038 58.4816 48.8269 60 53.1661 60C58.026 60 62.2132 58.0261 65.7279 54.0781C69.2427 50.1301 71 45.3363 71 39.6963C71 22.7765 61.5841 9.54452 42.7522 0L37.6754 9.37093Z" fill="#C2D8FE"/>
</svg>
