<svg width="40" height="40" viewBox="0 0 40 40" fill="none" xmlns="http://www.w3.org/2000/svg">
<path d="M10 13.052C11.4216 13.052 12.5781 11.8954 12.5781 10.4739C12.5781 9.05223 11.4216 7.89575 10 7.89575C8.57844 7.89575 7.42188 9.05231 7.42188 10.4739C7.42188 11.8954 8.57836 13.052 10 13.052Z" fill="#4472E8"/>
<path d="M10 15.3956C9.48082 15.3956 8.98043 15.3142 8.5102 15.1646L6.17199 16.4886V18.0518H13.8282V16.4886L11.49 15.1646C11.0197 15.3142 10.5193 15.3956 10 15.3956Z" fill="#4472E8"/>
<path d="M40 29.9269V26.0862H0V29.9269H16.25V32.9603L13.8713 35.2296H10.5859V37.5734H29.4141V35.2296H26.1287L23.75 32.9603V29.9269H40Z" fill="#4472E8"/>
<path d="M40 23.7424V2.42676H0V23.7424H40ZM23.6123 6.80191H36.2448V9.14566H23.6123V6.80191ZM23.6123 11.8019H33.7448V14.1457H23.6123V11.8019ZM23.6123 16.8019H36.2448V19.1457H23.6123V16.8019ZM18.7552 6.80191H21.2448V9.14566H18.7552V6.80191ZM18.7552 11.8019H21.2448V14.1457H18.7552V11.8019ZM18.7552 16.8019H21.2448V19.1457H18.7552V16.8019ZM3.8282 15.1223L6.30492 13.7198C5.54219 12.8526 5.07812 11.7167 5.07812 10.4738C5.07812 7.7598 7.28609 5.55191 10 5.55191C12.714 5.55191 14.9219 7.75988 14.9219 10.4738C14.9219 11.7167 14.4578 12.8527 13.6951 13.7199L16.1719 15.1223V20.3956H3.82812V15.1223H3.8282Z" fill="#4472E8"/>
</svg>
