<svg width="248" height="108" viewBox="0 0 248 108" fill="none" xmlns="http://www.w3.org/2000/svg">
<g filter="url(#filter0_d_2_70)">
<rect x="24" y="16" width="200" height="60" rx="10" fill="#161D2F"/>
<path d="M106.48 40.454C107.848 40.454 109.03 40.712 110.026 41.228C111.034 41.732 111.802 42.458 112.33 43.406C112.87 44.354 113.14 45.47 113.14 46.754C113.14 48.038 112.87 49.154 112.33 50.102C111.802 51.038 111.034 51.758 110.026 52.262C109.03 52.754 107.848 53 106.48 53H102.574V40.454H106.48ZM106.48 51.65C108.1 51.65 109.336 51.224 110.188 50.372C111.04 49.508 111.466 48.302 111.466 46.754C111.466 45.194 111.034 43.976 110.17 43.1C109.318 42.224 108.088 41.786 106.48 41.786H104.212V51.65H106.48ZM116.147 41.534C115.835 41.534 115.571 41.426 115.355 41.21C115.139 40.994 115.031 40.73 115.031 40.418C115.031 40.106 115.139 39.842 115.355 39.626C115.571 39.41 115.835 39.302 116.147 39.302C116.447 39.302 116.699 39.41 116.903 39.626C117.119 39.842 117.227 40.106 117.227 40.418C117.227 40.73 117.119 40.994 116.903 41.21C116.699 41.426 116.447 41.534 116.147 41.534ZM116.939 43.136V53H115.301V43.136H116.939ZM123.223 53.162C122.467 53.162 121.789 53.036 121.189 52.784C120.589 52.52 120.115 52.16 119.767 51.704C119.419 51.236 119.227 50.702 119.191 50.102H120.883C120.931 50.594 121.159 50.996 121.567 51.308C121.987 51.62 122.533 51.776 123.205 51.776C123.829 51.776 124.321 51.638 124.681 51.362C125.041 51.086 125.221 50.738 125.221 50.318C125.221 49.886 125.029 49.568 124.645 49.364C124.261 49.148 123.667 48.938 122.863 48.734C122.131 48.542 121.531 48.35 121.063 48.158C120.607 47.954 120.211 47.66 119.875 47.276C119.551 46.88 119.389 46.364 119.389 45.728C119.389 45.224 119.539 44.762 119.839 44.342C120.139 43.922 120.565 43.592 121.117 43.352C121.669 43.1 122.299 42.974 123.007 42.974C124.099 42.974 124.981 43.25 125.653 43.802C126.325 44.354 126.685 45.11 126.733 46.07H125.095C125.059 45.554 124.849 45.14 124.465 44.828C124.093 44.516 123.589 44.36 122.953 44.36C122.365 44.36 121.897 44.486 121.549 44.738C121.201 44.99 121.027 45.32 121.027 45.728C121.027 46.052 121.129 46.322 121.333 46.538C121.549 46.742 121.813 46.91 122.125 47.042C122.449 47.162 122.893 47.3 123.457 47.456C124.165 47.648 124.741 47.84 125.185 48.032C125.629 48.212 126.007 48.488 126.319 48.86C126.643 49.232 126.811 49.718 126.823 50.318C126.823 50.858 126.673 51.344 126.373 51.776C126.073 52.208 125.647 52.55 125.095 52.802C124.555 53.042 123.931 53.162 123.223 53.162ZM128.523 48.05C128.523 47.03 128.727 46.142 129.135 45.386C129.543 44.618 130.107 44.024 130.827 43.604C131.559 43.184 132.393 42.974 133.329 42.974C134.541 42.974 135.537 43.268 136.317 43.856C137.109 44.444 137.631 45.26 137.883 46.304H136.119C135.951 45.704 135.621 45.23 135.129 44.882C134.649 44.534 134.049 44.36 133.329 44.36C132.393 44.36 131.637 44.684 131.061 45.332C130.485 45.968 130.197 46.874 130.197 48.05C130.197 49.238 130.485 50.156 131.061 50.804C131.637 51.452 132.393 51.776 133.329 51.776C134.049 51.776 134.649 51.608 135.129 51.272C135.609 50.936 135.939 50.456 136.119 49.832H137.883C137.619 50.84 137.091 51.65 136.299 52.262C135.507 52.862 134.517 53.162 133.329 53.162C132.393 53.162 131.559 52.952 130.827 52.532C130.107 52.112 129.543 51.518 129.135 50.75C128.727 49.982 128.523 49.082 128.523 48.05ZM140.915 41.534C140.603 41.534 140.339 41.426 140.123 41.21C139.907 40.994 139.799 40.73 139.799 40.418C139.799 40.106 139.907 39.842 140.123 39.626C140.339 39.41 140.603 39.302 140.915 39.302C141.215 39.302 141.467 39.41 141.671 39.626C141.887 39.842 141.995 40.106 141.995 40.418C141.995 40.73 141.887 40.994 141.671 41.21C141.467 41.426 141.215 41.534 140.915 41.534ZM141.707 43.136V53H140.069V43.136H141.707ZM146.136 44.954C146.46 44.39 146.94 43.922 147.576 43.55C148.224 43.166 148.974 42.974 149.826 42.974C150.702 42.974 151.494 43.184 152.202 43.604C152.922 44.024 153.486 44.618 153.894 45.386C154.302 46.142 154.506 47.024 154.506 48.032C154.506 49.028 154.302 49.916 153.894 50.696C153.486 51.476 152.922 52.082 152.202 52.514C151.494 52.946 150.702 53.162 149.826 53.162C148.986 53.162 148.242 52.976 147.594 52.604C146.958 52.22 146.472 51.746 146.136 51.182V57.68H144.498V43.136H146.136V44.954ZM152.832 48.032C152.832 47.288 152.682 46.64 152.382 46.088C152.082 45.536 151.674 45.116 151.158 44.828C150.654 44.54 150.096 44.396 149.484 44.396C148.884 44.396 148.326 44.546 147.81 44.846C147.306 45.134 146.898 45.56 146.586 46.124C146.286 46.676 146.136 47.318 146.136 48.05C146.136 48.794 146.286 49.448 146.586 50.012C146.898 50.564 147.306 50.99 147.81 51.29C148.326 51.578 148.884 51.722 149.484 51.722C150.096 51.722 150.654 51.578 151.158 51.29C151.674 50.99 152.082 50.564 152.382 50.012C152.682 49.448 152.832 48.788 152.832 48.032ZM158.3 39.68V53H156.662V39.68H158.3ZM161.938 41.534C161.626 41.534 161.362 41.426 161.146 41.21C160.93 40.994 160.822 40.73 160.822 40.418C160.822 40.106 160.93 39.842 161.146 39.626C161.362 39.41 161.626 39.302 161.938 39.302C162.238 39.302 162.49 39.41 162.694 39.626C162.91 39.842 163.018 40.106 163.018 40.418C163.018 40.73 162.91 40.994 162.694 41.21C162.49 41.426 162.238 41.534 161.938 41.534ZM162.73 43.136V53H161.092V43.136H162.73ZM170.328 42.956C171.528 42.956 172.5 43.322 173.244 44.054C173.988 44.774 174.36 45.818 174.36 47.186V53H172.74V47.42C172.74 46.436 172.494 45.686 172.002 45.17C171.51 44.642 170.838 44.378 169.986 44.378C169.122 44.378 168.432 44.648 167.916 45.188C167.412 45.728 167.16 46.514 167.16 47.546V53H165.522V43.136H167.16V44.54C167.484 44.036 167.922 43.646 168.474 43.37C169.038 43.094 169.656 42.956 170.328 42.956ZM186.035 47.69C186.035 48.002 186.017 48.332 185.981 48.68H178.097C178.157 49.652 178.487 50.414 179.087 50.966C179.699 51.506 180.437 51.776 181.301 51.776C182.009 51.776 182.597 51.614 183.065 51.29C183.545 50.954 183.881 50.51 184.073 49.958H185.837C185.573 50.906 185.045 51.68 184.253 52.28C183.461 52.868 182.477 53.162 181.301 53.162C180.365 53.162 179.525 52.952 178.781 52.532C178.049 52.112 177.473 51.518 177.053 50.75C176.633 49.97 176.423 49.07 176.423 48.05C176.423 47.03 176.627 46.136 177.035 45.368C177.443 44.6 178.013 44.012 178.745 43.604C179.489 43.184 180.341 42.974 181.301 42.974C182.237 42.974 183.065 43.178 183.785 43.586C184.505 43.994 185.057 44.558 185.441 45.278C185.837 45.986 186.035 46.79 186.035 47.69ZM184.343 47.348C184.343 46.724 184.205 46.19 183.929 45.746C183.653 45.29 183.275 44.948 182.795 44.72C182.327 44.48 181.805 44.36 181.229 44.36C180.401 44.36 179.693 44.624 179.105 45.152C178.529 45.68 178.199 46.412 178.115 47.348H184.343Z" fill="white"/>
<g clip-path="url(#clip0_2_70)">
<path d="M69.8124 45.0204C64.8222 44.5518 61 40.4139 61 35.3945V33.6367C61 32.1828 62.1828 31 63.6367 31C65.0907 31 66.2734 32.1828 66.2734 33.6367C66.2734 34.1216 66.6674 34.5156 67.1523 34.5156H68.9688C69.4546 34.5156 69.8477 34.9087 69.8477 35.3945C69.8477 35.8803 69.4546 36.2734 68.9688 36.2734H67.1523C65.6984 36.2734 64.5156 35.0907 64.5156 33.6367C64.5156 33.1518 64.1216 32.7578 63.6367 32.7578C63.1518 32.7578 62.7578 33.1518 62.7578 33.6367V35.3945C62.7578 39.5015 65.8952 42.8867 69.9773 43.2695C70.4605 43.3149 70.815 43.7441 70.7703 44.2274C70.7249 44.7091 70.2983 45.0646 69.8124 45.0204Z" fill="#FFBE40"/>
<path d="M81.288 44.2274C81.2434 43.7441 81.5979 43.315 82.0811 43.2695C86.1632 42.8867 89.242 39.5015 89.242 35.3945V33.6367C89.242 33.1518 88.848 32.7578 88.3631 32.7578C87.8781 32.7578 87.4841 33.1518 87.4841 33.6367C87.4841 35.0907 86.3014 36.2734 84.8474 36.2734H83.0896C82.6038 36.2734 82.2107 35.8803 82.2107 35.3945C82.2107 34.9087 82.6038 34.5156 83.0896 34.5156H84.8474C85.3324 34.5156 85.7263 34.1216 85.7263 33.6367C85.7263 32.1828 86.9091 31 88.3631 31C89.817 31 90.9998 32.1828 90.9998 33.6367V35.3945C90.9998 40.4139 87.2361 44.5518 82.2459 45.0204C81.7601 45.0646 81.3335 44.7091 81.288 44.2274Z" fill="#FF9F40"/>
<path d="M83.0898 31H76H68.9688C68.4829 31 68.0898 31.3931 68.0898 31.8789V40.668C68.0898 44.0283 70.2262 46.9928 73.3633 48.1001V54.8477H76H78.6367V48.1001C81.7738 46.9929 83.9688 44.0283 83.9688 40.668V31.8789C83.9688 31.3931 83.5756 31 83.0898 31Z" fill="#FFDF40"/>
<path d="M78.6367 48.1001C81.7738 46.9929 83.9688 44.0283 83.9688 40.668V31.8789C83.9688 31.3931 83.5756 31 83.0898 31H76V54.8477H78.6367V48.1001Z" fill="#FFBE40"/>
<path d="M80.4889 37.7772C80.3851 37.4588 80.1104 37.2271 79.7791 37.179L77.7123 36.8786L76.7879 35.0058C76.6403 34.7054 76.3202 34.5552 76 34.5552C75.6799 34.5552 75.3597 34.7054 75.2121 35.0058L74.2877 36.8786L72.2209 37.179C71.8897 37.2271 71.615 37.4588 71.5111 37.7772C71.4081 38.0948 71.494 38.4442 71.7334 38.6776L73.2295 40.1359L72.8767 42.1941C72.82 42.5237 72.9557 42.8567 73.226 43.0533C73.4964 43.2507 73.8586 43.2764 74.1513 43.1202L76 42.1495L77.8488 43.1202C78.1405 43.2749 78.5016 43.2522 78.774 43.0532C79.0444 42.8567 79.18 42.5236 79.1234 42.194L78.7706 40.1358L80.2666 38.6775C80.506 38.4442 80.5919 38.0948 80.4889 37.7772Z" fill="white"/>
<path d="M78.7741 43.0533C79.0444 42.8567 79.1801 42.5237 79.1234 42.1941L78.7706 40.1359L80.2666 38.6776C80.5061 38.4442 80.592 38.0948 80.489 37.7772C80.3851 37.4588 80.1104 37.2271 79.7791 37.179L77.7124 36.8786L76.788 35.0058C76.6403 34.7054 76.3202 34.5552 76.0001 34.5552V42.1495L77.8489 43.1202C78.1405 43.2749 78.5017 43.2523 78.7741 43.0533Z" fill="white"/>
<path d="M83.0312 57.4844H82.1523V54.8477C82.1523 54.3619 81.7592 53.9688 81.2734 53.9688H76H70.7266C70.2408 53.9688 69.8477 54.3619 69.8477 54.8477V57.4844H68.9688C68.4829 57.4844 68.0898 57.8775 68.0898 58.3633V60.1211C68.0898 60.6069 68.4829 61 68.9688 61H76H83.0312C83.5171 61 83.9102 60.6069 83.9102 60.1211V58.3633C83.9102 57.8775 83.5171 57.4844 83.0312 57.4844Z" fill="white"/>
<path d="M83.9102 60.1211V58.3633C83.9102 57.8775 83.5171 57.4844 83.0312 57.4844H82.1523V54.8477C82.1523 54.3619 81.7592 53.9688 81.2734 53.9688H76V61H83.0312C83.5171 61 83.9102 60.6069 83.9102 60.1211Z" fill="white"/>
<path d="M77.7578 56.6055H76H74.2422C73.7564 56.6055 73.3633 56.9986 73.3633 57.4844C73.3633 57.9702 73.7564 58.3633 74.2422 58.3633H76H77.7578C78.2436 58.3633 78.6367 57.9702 78.6367 57.4844C78.6367 56.9986 78.2436 56.6055 77.7578 56.6055Z" fill="#FFDF40"/>
<path d="M78.6367 57.4844C78.6367 56.9986 78.2436 56.6055 77.7578 56.6055H76V58.3633H77.7578C78.2436 58.3633 78.6367 57.9702 78.6367 57.4844Z" fill="#FFDF40"/>
</g>
</g>
<defs>
<filter id="filter0_d_2_70" x="0" y="0" width="248" height="108" filterUnits="userSpaceOnUse" color-interpolation-filters="sRGB">
<feFlood flood-opacity="0" result="BackgroundImageFix"/>
<feColorMatrix in="SourceAlpha" type="matrix" values="0 0 0 0 0 0 0 0 0 0 0 0 0 0 0 0 0 0 127 0" result="hardAlpha"/>
<feOffset dy="8"/>
<feGaussianBlur stdDeviation="12"/>
<feComposite in2="hardAlpha" operator="out"/>
<feColorMatrix type="matrix" values="0 0 0 0 0 0 0 0 0 0 0 0 0 0 0 0 0 0 0.15 0"/>
<feBlend mode="normal" in2="BackgroundImageFix" result="effect1_dropShadow_2_70"/>
<feBlend mode="normal" in="SourceGraphic" in2="effect1_dropShadow_2_70" result="shape"/>
</filter>
<clipPath id="clip0_2_70">
<rect width="30" height="30" fill="white" transform="translate(61 31)"/>
</clipPath>
</defs>
</svg>
