<svg width="40" height="40" viewBox="0 0 40 40" fill="none" xmlns="http://www.w3.org/2000/svg">
<g clip-path="url(#clip0_2_257)">
<path d="M39.3012 12.2876L35.9936 8.97993L38.4801 6.49437C38.6999 6.27476 38.8235 5.97719 38.8235 5.66593C38.8235 5.35468 38.6999 5.05711 38.4801 4.83742L35.1511 1.50835C34.7116 1.06889 33.9334 1.06889 33.494 1.50835L31.0084 3.99484L27.7003 0.686549C26.785 -0.228687 25.3011 -0.228687 24.3857 0.686549C23.4703 1.60179 23.4703 3.08577 24.3857 4.00109L35.9866 15.6021C36.902 16.5174 38.386 16.5174 39.3012 15.6021C40.2165 14.6869 40.2165 13.2029 39.3012 12.2876Z" fill="#4472E8"/>
<path d="M15.6145 35.9989L4.0136 24.3979C3.09821 23.4826 1.61438 23.4826 0.698985 24.3979C-0.216251 25.3132 -0.216251 26.7972 0.698985 27.7125L4.00719 31.0207L1.52555 33.5013C1.30578 33.7211 1.18219 34.0186 1.18219 34.3298C1.18219 34.6411 1.30578 34.9387 1.52555 35.1583L4.85462 38.4863C5.08345 38.7153 5.38329 38.8297 5.68314 38.8297C5.98298 38.8297 6.28282 38.7153 6.51165 38.4864L8.99228 36.0058L12.2999 39.3135C13.2152 40.2287 14.6992 40.2287 15.6145 39.3135C16.5299 38.3981 16.5299 36.9141 15.6145 35.9989Z" fill="#4472E8"/>
<path d="M21.0711 13.9446L13.9565 21.0833L18.9284 26.0552L26.0429 18.9163L21.0711 13.9446Z" fill="#4472E8"/>
<path d="M35.9871 18.9165L21.0716 4.00088C20.1563 3.08564 18.6723 3.08564 17.757 4.00088C16.8416 4.91627 16.8416 6.4001 17.757 7.3155L32.6726 22.2311C33.5878 23.1463 35.0718 23.1463 35.9871 22.2311C36.9025 21.3158 36.9025 19.8319 35.9871 18.9165Z" fill="#4472E8"/>
<path d="M22.2434 32.6843L7.32779 17.7687C6.41255 16.8535 4.92856 16.8535 4.01333 17.7687C3.09793 18.6841 3.09793 20.1681 4.01333 21.0833L18.9289 35.9989C19.8441 36.9141 21.3281 36.9141 22.2434 35.9989C23.1588 35.0836 23.1588 33.5997 22.2434 32.6843Z" fill="#4472E8"/>
</g>
<defs>
<clipPath id="clip0_2_257">
<rect width="40" height="40" fill="white"/>
</clipPath>
</defs>
</svg>
