<svg width="248" height="108" viewBox="0 0 248 108" fill="none" xmlns="http://www.w3.org/2000/svg">
<g filter="url(#filter0_d_2_56)">
<rect x="24" y="16" width="200" height="60" rx="10" fill="#262626"/>
<path d="M82.3804 41.786V45.98H86.9524V47.33H82.3804V51.65H87.4924V53H80.7424V40.436H87.4924V41.786H82.3804ZM89.359 48.032C89.359 47.024 89.563 46.142 89.971 45.386C90.379 44.618 90.937 44.024 91.645 43.604C92.365 43.184 93.163 42.974 94.039 42.974C94.903 42.974 95.653 43.16 96.289 43.532C96.925 43.904 97.399 44.372 97.711 44.936V43.136H99.367V53H97.711V51.164C97.387 51.74 96.901 52.22 96.253 52.604C95.617 52.976 94.873 53.162 94.021 53.162C93.145 53.162 92.353 52.946 91.645 52.514C90.937 52.082 90.379 51.476 89.971 50.696C89.563 49.916 89.359 49.028 89.359 48.032ZM97.711 48.05C97.711 47.306 97.561 46.658 97.261 46.106C96.961 45.554 96.553 45.134 96.037 44.846C95.533 44.546 94.975 44.396 94.363 44.396C93.751 44.396 93.193 44.54 92.689 44.828C92.185 45.116 91.783 45.536 91.483 46.088C91.183 46.64 91.033 47.288 91.033 48.032C91.033 48.788 91.183 49.448 91.483 50.012C91.783 50.564 92.185 50.99 92.689 51.29C93.193 51.578 93.751 51.722 94.363 51.722C94.975 51.722 95.533 51.578 96.037 51.29C96.553 50.99 96.961 50.564 97.261 50.012C97.561 49.448 97.711 48.794 97.711 48.05ZM104.133 44.486V50.3C104.133 50.78 104.235 51.122 104.439 51.326C104.643 51.518 104.997 51.614 105.501 51.614H106.707V53H105.231C104.319 53 103.635 52.79 103.179 52.37C102.723 51.95 102.495 51.26 102.495 50.3V44.486H101.217V43.136H102.495V40.652H104.133V43.136H106.707V44.486H104.133ZM109.538 41.534C109.226 41.534 108.962 41.426 108.746 41.21C108.53 40.994 108.422 40.73 108.422 40.418C108.422 40.106 108.53 39.842 108.746 39.626C108.962 39.41 109.226 39.302 109.538 39.302C109.838 39.302 110.09 39.41 110.294 39.626C110.51 39.842 110.618 40.106 110.618 40.418C110.618 40.73 110.51 40.994 110.294 41.21C110.09 41.426 109.838 41.534 109.538 41.534ZM110.33 43.136V53H108.692V43.136H110.33ZM117.927 42.956C119.127 42.956 120.099 43.322 120.843 44.054C121.587 44.774 121.959 45.818 121.959 47.186V53H120.339V47.42C120.339 46.436 120.093 45.686 119.601 45.17C119.109 44.642 118.437 44.378 117.585 44.378C116.721 44.378 116.031 44.648 115.515 45.188C115.011 45.728 114.759 46.514 114.759 47.546V53H113.121V43.136H114.759V44.54C115.083 44.036 115.521 43.646 116.073 43.37C116.637 43.094 117.255 42.956 117.927 42.956ZM128.703 42.974C129.555 42.974 130.299 43.16 130.935 43.532C131.583 43.904 132.063 44.372 132.375 44.936V43.136H134.031V53.216C134.031 54.116 133.839 54.914 133.455 55.61C133.071 56.318 132.519 56.87 131.799 57.266C131.091 57.662 130.263 57.86 129.315 57.86C128.019 57.86 126.939 57.554 126.075 56.942C125.211 56.33 124.701 55.496 124.545 54.44H126.165C126.345 55.04 126.717 55.52 127.281 55.88C127.845 56.252 128.523 56.438 129.315 56.438C130.215 56.438 130.947 56.156 131.511 55.592C132.087 55.028 132.375 54.236 132.375 53.216V51.146C132.051 51.722 131.571 52.202 130.935 52.586C130.299 52.97 129.555 53.162 128.703 53.162C127.827 53.162 127.029 52.946 126.309 52.514C125.601 52.082 125.043 51.476 124.635 50.696C124.227 49.916 124.023 49.028 124.023 48.032C124.023 47.024 124.227 46.142 124.635 45.386C125.043 44.618 125.601 44.024 126.309 43.604C127.029 43.184 127.827 42.974 128.703 42.974ZM132.375 48.05C132.375 47.306 132.225 46.658 131.925 46.106C131.625 45.554 131.217 45.134 130.701 44.846C130.197 44.546 129.639 44.396 129.027 44.396C128.415 44.396 127.857 44.54 127.353 44.828C126.849 45.116 126.447 45.536 126.147 46.088C125.847 46.64 125.697 47.288 125.697 48.032C125.697 48.788 125.847 49.448 126.147 50.012C126.447 50.564 126.849 50.99 127.353 51.29C127.857 51.578 128.415 51.722 129.027 51.722C129.639 51.722 130.197 51.578 130.701 51.29C131.217 50.99 131.625 50.564 131.925 50.012C132.225 49.448 132.375 48.794 132.375 48.05ZM151.264 40.454V53H149.626V47.312H143.236V53H141.598V40.454H143.236V45.962H149.626V40.454H151.264ZM163.061 47.69C163.061 48.002 163.043 48.332 163.007 48.68H155.123C155.183 49.652 155.513 50.414 156.113 50.966C156.725 51.506 157.463 51.776 158.327 51.776C159.035 51.776 159.623 51.614 160.091 51.29C160.571 50.954 160.907 50.51 161.099 49.958H162.863C162.599 50.906 162.071 51.68 161.279 52.28C160.487 52.868 159.503 53.162 158.327 53.162C157.391 53.162 156.551 52.952 155.807 52.532C155.075 52.112 154.499 51.518 154.079 50.75C153.659 49.97 153.449 49.07 153.449 48.05C153.449 47.03 153.653 46.136 154.061 45.368C154.469 44.6 155.039 44.012 155.771 43.604C156.515 43.184 157.367 42.974 158.327 42.974C159.263 42.974 160.091 43.178 160.811 43.586C161.531 43.994 162.083 44.558 162.467 45.278C162.863 45.986 163.061 46.79 163.061 47.69ZM161.369 47.348C161.369 46.724 161.231 46.19 160.955 45.746C160.679 45.29 160.301 44.948 159.821 44.72C159.353 44.48 158.831 44.36 158.255 44.36C157.427 44.36 156.719 44.624 156.131 45.152C155.555 45.68 155.225 46.412 155.141 47.348H161.369ZM164.611 48.032C164.611 47.024 164.815 46.142 165.223 45.386C165.631 44.618 166.189 44.024 166.897 43.604C167.617 43.184 168.415 42.974 169.291 42.974C170.155 42.974 170.905 43.16 171.541 43.532C172.177 43.904 172.651 44.372 172.963 44.936V43.136H174.619V53H172.963V51.164C172.639 51.74 172.153 52.22 171.505 52.604C170.869 52.976 170.125 53.162 169.273 53.162C168.397 53.162 167.605 52.946 166.897 52.514C166.189 52.082 165.631 51.476 165.223 50.696C164.815 49.916 164.611 49.028 164.611 48.032ZM172.963 48.05C172.963 47.306 172.813 46.658 172.513 46.106C172.213 45.554 171.805 45.134 171.289 44.846C170.785 44.546 170.227 44.396 169.615 44.396C169.003 44.396 168.445 44.54 167.941 44.828C167.437 45.116 167.035 45.536 166.735 46.088C166.435 46.64 166.285 47.288 166.285 48.032C166.285 48.788 166.435 49.448 166.735 50.012C167.035 50.564 167.437 50.99 167.941 51.29C168.445 51.578 169.003 51.722 169.615 51.722C170.227 51.722 170.785 51.578 171.289 51.29C171.805 50.99 172.213 50.564 172.513 50.012C172.813 49.448 172.963 48.794 172.963 48.05ZM179.025 39.68V53H177.387V39.68H179.025ZM183.815 44.486V50.3C183.815 50.78 183.917 51.122 184.121 51.326C184.325 51.518 184.679 51.614 185.183 51.614H186.389V53H184.913C184.001 53 183.317 52.79 182.861 52.37C182.405 51.95 182.177 51.26 182.177 50.3V44.486H180.899V43.136H182.177V40.652H183.815V43.136H186.389V44.486H183.815ZM193.269 42.956C194.013 42.956 194.685 43.118 195.285 43.442C195.885 43.754 196.353 44.228 196.689 44.864C197.037 45.5 197.211 46.274 197.211 47.186V53H195.591V47.42C195.591 46.436 195.345 45.686 194.853 45.17C194.361 44.642 193.689 44.378 192.837 44.378C191.973 44.378 191.283 44.648 190.767 45.188C190.263 45.728 190.011 46.514 190.011 47.546V53H188.373V39.68H190.011V44.54C190.335 44.036 190.779 43.646 191.343 43.37C191.919 43.094 192.561 42.956 193.269 42.956ZM208.383 43.136L202.443 57.644H200.751L202.695 52.892L198.717 43.136H200.535L203.631 51.128L206.691 43.136H208.383Z" fill="white"/>
<g clip-path="url(#clip0_2_56)">
<path d="M69 46C69 54.2844 62.2844 61 54 61C45.7156 61 39 54.2844 39 46C39 37.7156 45.7156 31 54 31C62.2844 31 69 37.7156 69 46Z" fill="#FFDF40"/>
<path d="M69 46C69 44.4821 68.7736 43.0172 68.3546 41.6364L64.2338 37.5156L62.5581 38.4762C62.4467 38.3602 62.3329 38.2469 62.2171 38.1363C60.0748 35.8969 57.1194 34.6248 54 34.6248C47.7277 34.6248 42.6248 39.7277 42.6248 46C42.6248 49.2291 43.9773 52.148 46.1455 54.2205C46.1455 54.2205 50.599 58.6771 52.881 60.9586C53.2506 60.9858 53.6235 61 54 61C62.2844 61 69 54.2844 69 46Z" fill="#FF9F40"/>
<path d="M64.1035 46C64.1035 51.5799 59.5799 56.1035 54 56.1035C48.4201 56.1035 43.8965 51.5799 43.8965 46C43.8965 40.4201 48.4201 35.8965 54 35.8965C59.5799 35.8965 64.1035 40.4201 64.1035 46Z" fill="white"/>
<path d="M64.1033 46C64.1033 51.5769 59.5852 56.0987 54.0082 56.1035V35.8965C58.5481 35.9001 62.3874 38.898 63.6568 43.022C63.947 43.9636 64.1033 44.9636 64.1033 46Z" fill="white"/>
<path d="M62.8316 46C62.8316 50.8699 58.8697 54.8316 54 54.8316C49.1301 54.8316 45.1684 50.8699 45.1684 46C45.1684 41.1301 49.1301 37.1684 54 37.1684C56.3708 37.1684 58.6202 38.1141 60.2748 39.7852L58.614 40.7371L63.6577 43.0229L64.2338 37.5156L62.5398 38.4867C60.3773 36.0297 57.2792 34.6248 54 34.6248C47.7277 34.6248 42.6248 39.7277 42.6248 46C42.6248 52.2723 47.7277 57.3752 54 57.3752C60.2723 57.3752 65.3752 52.2723 65.3752 46H62.8316Z" fill="#262626"/>
<path d="M60.275 39.7852C58.6218 38.1157 56.376 37.1707 54.0082 37.1681V34.6248C57.2845 34.6271 60.3794 36.0317 62.54 38.4863L64.2338 37.5158L63.6579 43.0227L63.6568 43.022L58.614 40.7371L60.275 39.7852Z" fill="#262626"/>
<path d="M65.375 46C65.375 52.2691 60.2773 57.3704 54.0082 57.3752V54.8319C58.8747 54.8271 62.8316 50.8672 62.8316 46H65.375Z" fill="#262626"/>
<path d="M47.5812 49.157C47.5812 48.7914 47.6094 48.4605 47.6664 48.1638C47.7229 47.8674 47.8227 47.5932 47.9648 47.3415C48.107 47.0899 48.3018 46.8542 48.5496 46.6349C48.7975 46.4156 49.112 46.2005 49.494 45.9892C49.8268 45.8107 50.1214 45.6542 50.3773 45.52C50.6331 45.3861 50.8462 45.2623 51.017 45.1486C51.1875 45.0348 51.3173 44.9192 51.4068 44.8011C51.496 44.6835 51.5407 44.5475 51.5407 44.393C51.5407 44.1493 51.4434 43.9403 51.2482 43.7657C51.0534 43.591 50.7732 43.5036 50.4077 43.5036C50.2127 43.5036 50.0339 43.5301 49.8717 43.5828C49.7089 43.6357 49.5567 43.7068 49.4146 43.7961C49.2724 43.8856 49.1424 43.9849 49.0248 44.0946C48.9069 44.2042 48.7993 44.32 48.7018 44.4418L47.6543 43.2356C47.7595 43.122 47.9101 42.998 48.1049 42.8641C48.2999 42.73 48.5293 42.6041 48.7934 42.4862C49.0573 42.3686 49.3496 42.2713 49.6705 42.1939C49.9914 42.1168 50.3347 42.0781 50.7002 42.0781C51.1145 42.0781 51.4839 42.1289 51.8089 42.2303C52.1335 42.3322 52.4077 42.4741 52.6311 42.657C52.8544 42.8396 53.025 43.0589 53.1428 43.3148C53.2605 43.5706 53.3195 43.849 53.3195 44.1493C53.3195 44.4338 53.2667 44.6855 53.1611 44.9048C53.0554 45.1241 52.9215 45.3191 52.759 45.4896C52.5965 45.6601 52.4198 45.8084 52.2291 45.9343C52.0383 46.0604 51.8533 46.1719 51.6748 46.2694C51.5285 46.3506 51.3619 46.444 51.1751 46.5495C50.9881 46.6553 50.8037 46.7711 50.6208 46.897C50.4381 47.0229 50.2695 47.1529 50.1152 47.2868C49.9607 47.4207 49.843 47.553 49.762 47.6827H53.4534V49.157H47.5812Z" fill="#262626"/>
<path d="M57.791 50.7042V48.8887H54.2332V47.439L58.3149 42.1999H59.4236V47.4268H60.4957V48.8887H59.4236V50.7042H57.791ZM55.8661 47.4268H57.9736V44.6732L55.8661 47.4268Z" fill="#262626"/>
</g>
</g>
<defs>
<filter id="filter0_d_2_56" x="0" y="0" width="248" height="108" filterUnits="userSpaceOnUse" color-interpolation-filters="sRGB">
<feFlood flood-opacity="0" result="BackgroundImageFix"/>
<feColorMatrix in="SourceAlpha" type="matrix" values="0 0 0 0 0 0 0 0 0 0 0 0 0 0 0 0 0 0 127 0" result="hardAlpha"/>
<feOffset dy="8"/>
<feGaussianBlur stdDeviation="12"/>
<feComposite in2="hardAlpha" operator="out"/>
<feColorMatrix type="matrix" values="0 0 0 0 0 0 0 0 0 0 0 0 0 0 0 0 0 0 0.15 0"/>
<feBlend mode="normal" in2="BackgroundImageFix" result="effect1_dropShadow_2_56"/>
<feBlend mode="normal" in="SourceGraphic" in2="effect1_dropShadow_2_56" result="shape"/>
</filter>
<clipPath id="clip0_2_56">
<rect width="30" height="30" fill="white" transform="translate(39 31)"/>
</clipPath>
</defs>
</svg>
