<svg width="38" height="44" viewBox="0 0 38 44" fill="none" xmlns="http://www.w3.org/2000/svg">
<path d="M7.29584 10.4333C10.6161 7.77297 14.7454 6.32647 19 6.33325C23.4271 6.33325 27.4958 7.86659 30.7042 10.4333L33.7313 7.40617L36.6771 10.352L33.65 13.3791C35.8536 16.1377 37.2334 19.4625 37.6309 22.9707C38.0283 26.479 37.4271 30.0282 35.8964 33.2098C34.3658 36.3914 31.9679 39.0763 28.9788 40.9553C25.9896 42.8343 22.5307 43.8312 19 43.8312C15.4693 43.8312 12.0104 42.8343 9.02124 40.9553C6.0321 39.0763 3.63423 36.3914 2.1036 33.2098C0.57296 30.0282 -0.0282454 26.479 0.369167 22.9707C0.76658 19.4625 2.14646 16.1377 4.35001 13.3791L1.32293 10.3541L4.26876 7.40825L7.29584 10.4353V10.4333ZM21.0833 22.9999V13.6145L10.6667 27.1666H16.9167V36.5416L27.3333 22.9999H21.0833ZM10.6667 0.083252H27.3333V4.24992H10.6667V0.083252Z" fill="#4572E8"/>
</svg>
