<svg width="156" height="25" viewBox="0 0 156 25" fill="none" xmlns="http://www.w3.org/2000/svg">
<path d="M7.728 18.168C5.76 18.168 4.144 17.704 2.88 16.776C1.616 15.832 0.936 14.488 0.84 12.744H5.856C5.904 13.336 6.08 13.768 6.384 14.04C6.688 14.312 7.08 14.448 7.56 14.448C7.992 14.448 8.344 14.344 8.616 14.136C8.904 13.912 9.048 13.608 9.048 13.224C9.048 12.728 8.816 12.344 8.352 12.072C7.888 11.8 7.136 11.496 6.096 11.16C4.992 10.792 4.096 10.44 3.408 10.104C2.736 9.752 2.144 9.248 1.632 8.592C1.136 7.92 0.888 7.048 0.888 5.976C0.888 4.888 1.16 3.96 1.704 3.192C2.248 2.408 3 1.816 3.96 1.416C4.92 1.016 6.008 0.816 7.224 0.816C9.192 0.816 10.76 1.28 11.928 2.208C13.112 3.12 13.744 4.408 13.824 6.072H8.712C8.696 5.56 8.536 5.176 8.232 4.92C7.944 4.664 7.568 4.536 7.104 4.536C6.752 4.536 6.464 4.64 6.24 4.848C6.016 5.056 5.904 5.352 5.904 5.736C5.904 6.056 6.024 6.336 6.264 6.576C6.52 6.8 6.832 7 7.2 7.176C7.568 7.336 8.112 7.544 8.832 7.8C9.904 8.168 10.784 8.536 11.472 8.904C12.176 9.256 12.776 9.76 13.272 10.416C13.784 11.056 14.04 11.872 14.04 12.864C14.04 13.872 13.784 14.776 13.272 15.576C12.776 16.376 12.048 17.008 11.088 17.472C10.144 17.936 9.024 18.168 7.728 18.168ZM24.1708 13.992V18H22.1308C18.6908 18 16.9708 16.296 16.9708 12.888V8.448H15.3148V4.536H16.9708V1.272H21.6988V4.536H24.1468V8.448H21.6988V12.96C21.6988 13.328 21.7788 13.592 21.9388 13.752C22.1148 13.912 22.4028 13.992 22.8028 13.992H24.1708ZM25.5604 11.256C25.5604 9.864 25.8084 8.648 26.3044 7.608C26.8164 6.568 27.5044 5.768 28.3684 5.208C29.2484 4.648 30.2244 4.368 31.2964 4.368C32.2244 4.368 33.0244 4.552 33.6964 4.92C34.3684 5.288 34.8884 5.784 35.2564 6.408V4.536H39.9604V18H35.2564V16.128C34.8884 16.752 34.3604 17.248 33.6724 17.616C33.0004 17.984 32.2084 18.168 31.2964 18.168C30.2244 18.168 29.2484 17.888 28.3684 17.328C27.5044 16.768 26.8164 15.968 26.3044 14.928C25.8084 13.872 25.5604 12.648 25.5604 11.256ZM35.2564 11.256C35.2564 10.392 35.0164 9.712 34.5364 9.216C34.0724 8.72 33.4964 8.472 32.8084 8.472C32.1044 8.472 31.5204 8.72 31.0564 9.216C30.5924 9.696 30.3604 10.376 30.3604 11.256C30.3604 12.12 30.5924 12.808 31.0564 13.32C31.5204 13.816 32.1044 14.064 32.8084 14.064C33.4964 14.064 34.0724 13.816 34.5364 13.32C35.0164 12.824 35.2564 12.136 35.2564 11.256ZM57.1369 4.536L48.5929 24.408H43.4809L46.6969 17.424L41.1769 4.536H46.4089L49.2409 12.168L51.9769 4.536H57.1369ZM73.5114 1.08V18H68.8074V11.208H63.0714V18H58.3674V1.08H63.0714V7.44H68.8074V1.08H73.5114ZM89.0674 11.112C89.0674 11.48 89.0434 11.848 88.9954 12.216H80.0914C80.1394 12.952 80.3394 13.504 80.6914 13.872C81.0594 14.224 81.5234 14.4 82.0834 14.4C82.8674 14.4 83.4274 14.048 83.7634 13.344H88.7794C88.5714 14.272 88.1634 15.104 87.5554 15.84C86.9634 16.56 86.2114 17.128 85.2994 17.544C84.3874 17.96 83.3794 18.168 82.2754 18.168C80.9474 18.168 79.7634 17.888 78.7234 17.328C77.6994 16.768 76.8914 15.968 76.2994 14.928C75.7234 13.888 75.4354 12.664 75.4354 11.256C75.4354 9.848 75.7234 8.632 76.2994 7.608C76.8754 6.568 77.6754 5.768 78.6994 5.208C79.7394 4.648 80.9314 4.368 82.2754 4.368C83.6034 4.368 84.7794 4.64 85.8034 5.184C86.8274 5.728 87.6274 6.512 88.2034 7.536C88.7794 8.544 89.0674 9.736 89.0674 11.112ZM84.2674 9.936C84.2674 9.36 84.0754 8.912 83.6914 8.592C83.3074 8.256 82.8274 8.088 82.2514 8.088C81.6754 8.088 81.2034 8.248 80.8354 8.568C80.4674 8.872 80.2274 9.328 80.1154 9.936H84.2674ZM90.2244 11.256C90.2244 9.864 90.4724 8.648 90.9684 7.608C91.4804 6.568 92.1684 5.768 93.0324 5.208C93.9124 4.648 94.8884 4.368 95.9604 4.368C96.8884 4.368 97.6884 4.552 98.3604 4.92C99.0324 5.288 99.5524 5.784 99.9204 6.408V4.536H104.624V18H99.9204V16.128C99.5524 16.752 99.0244 17.248 98.3364 17.616C97.6644 17.984 96.8724 18.168 95.9604 18.168C94.8884 18.168 93.9124 17.888 93.0324 17.328C92.1684 16.768 91.4804 15.968 90.9684 14.928C90.4724 13.872 90.2244 12.648 90.2244 11.256ZM99.9204 11.256C99.9204 10.392 99.6804 9.712 99.2004 9.216C98.7364 8.72 98.1604 8.472 97.4724 8.472C96.7684 8.472 96.1844 8.72 95.7204 9.216C95.2564 9.696 95.0244 10.376 95.0244 11.256C95.0244 12.12 95.2564 12.808 95.7204 13.32C96.1844 13.816 96.7684 14.064 97.4724 14.064C98.1604 14.064 98.7364 13.816 99.2004 13.32C99.6804 12.824 99.9204 12.136 99.9204 11.256ZM112.009 0.24V18H107.305V0.24H112.009ZM122.632 13.992V18H120.592C117.152 18 115.432 16.296 115.432 12.888V8.448H113.776V4.536H115.432V1.272H120.16V4.536H122.608V8.448H120.16V12.96C120.16 13.328 120.24 13.592 120.4 13.752C120.576 13.912 120.864 13.992 121.264 13.992H122.632ZM133.645 4.416C135.181 4.416 136.397 4.936 137.293 5.976C138.205 7 138.661 8.392 138.661 10.152V18H133.957V10.776C133.957 10.008 133.757 9.408 133.357 8.976C132.957 8.528 132.421 8.304 131.749 8.304C131.045 8.304 130.493 8.528 130.093 8.976C129.693 9.408 129.493 10.008 129.493 10.776V18H124.789V0.24H129.493V6.456C129.909 5.848 130.469 5.36 131.173 4.992C131.893 4.608 132.717 4.416 133.645 4.416ZM155.738 4.536L147.194 24.408H142.082L145.298 17.424L139.778 4.536H145.01L147.842 12.168L150.578 4.536H155.738Z" fill="white"/>
</svg>
